<svg width="338" height="229" viewBox="0 0 338 229" fill="none" xmlns="http://www.w3.org/2000/svg">
<g filter="url(#filter0_d_416_8)">
<path d="M220.277 50.6796L220.277 166.26L235.381 157.308L235.381 137.299L311.416 137.299L290.929 116.765L235.774 116.765L235.774 88.8568L254.423 107.55L278.586 107.55L220.277 50.6818L220.277 50.6796ZM274.906 147.041L319.556 147.041L329.798 157.308L299.857 157.308L308.525 170.737L291.715 170.737L274.906 147.041ZM109.523 50.6796L109.523 166.26L94.4216 157.308L94.4216 137.299L18.3864 137.299L38.8737 116.765L94.0285 116.765L94.0285 88.8568L75.3801 107.55L51.2172 107.55L109.523 50.6818L109.523 50.6796ZM54.8927 147.041L10.2426 147.041L6.89904e-08 157.308L29.9415 157.308L21.2735 170.737L38.0831 170.737L54.8927 147.041ZM213.521 82.2739L177.506 98.1668L177.506 33.4576L211.498 67.5342L211.498 46.737L165.002 7.27295e-08L118.58 46.5344L118.58 67.3383L152.572 33.2551L152.572 97.9865L117.152 82.3563L115.169 81.4814L115.169 192.322L119.373 196.536L119.373 156.776L152.572 156.776L152.572 212.661L165.302 225.096L177.508 212.861L177.508 156.698L211.3 156.698L211.3 196.449L215.498 192.235L215.498 81.3945L213.524 82.2672L213.521 82.2739ZM152.57 137.564L119.109 137.564L119.109 110.186L152.57 122.769L152.57 137.564ZM211.56 137.479L177.506 137.479L177.506 122.916L211.56 110.101L211.56 137.479Z" fill="white"/>
</g>
<defs>
<filter id="filter0_d_416_8" x="0" y="0" width="337.35" height="228.872" filterUnits="userSpaceOnUse" color-interpolation-filters="sRGB">
<feFlood flood-opacity="0" result="BackgroundImageFix"/>
<feColorMatrix in="SourceAlpha" type="matrix" values="0 0 0 0 0 0 0 0 0 0 0 0 0 0 0 0 0 0 127 0" result="hardAlpha"/>
<feOffset dx="5.664" dy="1.888"/>
<feGaussianBlur stdDeviation="0.944"/>
<feComposite in2="hardAlpha" operator="out"/>
<feColorMatrix type="matrix" values="0 0 0 0 0 0 0 0 0 0 0 0 0 0 0 0 0 0 0.25 0"/>
<feBlend mode="normal" in2="BackgroundImageFix" result="effect1_dropShadow_416_8"/>
<feBlend mode="normal" in="SourceGraphic" in2="effect1_dropShadow_416_8" result="shape"/>
</filter>
</defs>
</svg>
